<svg xmlns="http://www.w3.org/2000/svg" viewBox="0 0 200 200" width="200" height="200">
  <!-- QR de prueba. Más adelante se reemplaza por el código real. -->
  <rect width="200" height="200" fill="#ffffff"/>
  <rect x="12" y="12" width="44" height="44" fill="#1a1a1a"/>
  <rect x="20" y="20" width="28" height="28" fill="#ffffff"/>
  <rect x="26" y="26" width="16" height="16" fill="#1a1a1a"/>
  <rect x="144" y="12" width="44" height="44" fill="#1a1a1a"/>
  <rect x="152" y="20" width="28" height="28" fill="#ffffff"/>
  <rect x="158" y="26" width="16" height="16" fill="#1a1a1a"/>
  <rect x="12" y="144" width="44" height="44" fill="#1a1a1a"/>
  <rect x="20" y="152" width="28" height="28" fill="#ffffff"/>
  <rect x="26" y="158" width="16" height="16" fill="#1a1a1a"/>
  <rect x="70" y="20" width="10" height="10" fill="#1a1a1a"/>
  <rect x="92" y="20" width="10" height="10" fill="#1a1a1a"/>
  <rect x="114" y="20" width="10" height="10" fill="#1a1a1a"/>
  <rect x="70" y="42" width="10" height="10" fill="#1a1a1a"/>
  <rect x="103" y="42" width="10" height="10" fill="#1a1a1a"/>
  <rect x="20" y="70" width="10" height="10" fill="#1a1a1a"/>
  <rect x="42" y="70" width="10" height="10" fill="#1a1a1a"/>
  <rect x="70" y="70" width="22" height="10" fill="#1a1a1a"/>
  <rect x="103" y="70" width="10" height="10" fill="#1a1a1a"/>
  <rect x="125" y="70" width="10" height="10" fill="#1a1a1a"/>
  <rect x="158" y="70" width="22" height="10" fill="#1a1a1a"/>
  <rect x="70" y="92" width="10" height="10" fill="#1a1a1a"/>
  <rect x="92" y="92" width="32" height="10" fill="#1a1a1a"/>
  <rect x="136" y="92" width="10" height="10" fill="#1a1a1a"/>
  <rect x="168" y="92" width="10" height="10" fill="#1a1a1a"/>
  <rect x="20" y="103" width="22" height="10" fill="#1a1a1a"/>
  <rect x="70" y="114" width="10" height="10" fill="#1a1a1a"/>
  <rect x="92" y="114" width="10" height="10" fill="#1a1a1a"/>
  <rect x="125" y="114" width="22" height="10" fill="#1a1a1a"/>
  <rect x="158" y="114" width="10" height="10" fill="#1a1a1a"/>
  <rect x="70" y="136" width="10" height="10" fill="#1a1a1a"/>
  <rect x="92" y="147" width="10" height="10" fill="#1a1a1a"/>
  <rect x="114" y="136" width="10" height="10" fill="#1a1a1a"/>
  <rect x="136" y="147" width="22" height="10" fill="#1a1a1a"/>
  <rect x="70" y="168" width="22" height="10" fill="#1a1a1a"/>
  <rect x="103" y="168" width="10" height="10" fill="#1a1a1a"/>
  <rect x="136" y="168" width="10" height="10" fill="#1a1a1a"/>
  <rect x="168" y="158" width="10" height="22" fill="#1a1a1a"/>
  <text x="100" y="108" text-anchor="middle" font-family="Arial" font-size="11" fill="#2b78c5" font-weight="bold">PRUEBA</text>
</svg>
